<svg width="146" height="165" viewBox="0 0 146 165" fill="none" xmlns="http://www.w3.org/2000/svg">
<path fill-rule="evenodd" clip-rule="evenodd" d="M95.4608 48.0792C102.504 47.3001 108.845 52.3815 109.616 59.4255C110.386 66.4701 105.292 72.8042 98.2454 73.5649C91.2136 74.323 84.8952 69.2438 84.126 62.2142C83.3568 55.1833 88.4291 48.8577 95.4608 48.0792ZM96.3207 52.9839C91.9913 53.288 88.7388 57.0592 89.0716 61.3856C89.4035 65.7121 93.195 68.9401 97.5192 68.58C101.803 68.2217 104.999 64.4734 104.67 60.1873C104.34 55.9014 100.609 52.6835 96.3207 52.9839Z" fill="#4A5565" fill-opacity="0.1"/>
<path fill-rule="evenodd" clip-rule="evenodd" d="M72.359 0.0258388C73.2081 -0.0332883 73.7512 -0.0310035 74.4932 0.480223C75.9756 1.50175 77.4578 2.71368 78.8819 3.82129L101.262 21.1815C103.614 23.0052 106.602 25.1994 108.814 27.0974C110.229 26.25 113.805 24.7193 115.314 24.077C119.947 22.0626 124.674 20.2701 129.478 18.7091C132.437 17.7685 135.851 16.7413 138.924 16.1966C139.379 16.1461 139.789 16.29 140.181 16.4772C142.455 17.5663 140.758 21.5995 140.23 23.4578C138.58 29.2898 136.569 35.015 134.215 40.5997C133.63 41.9814 132.87 43.9218 132.192 45.1837C133.964 46.3695 136.298 48.3962 138.118 49.7409C140.373 51.5089 142.698 53.2119 144.908 55.0331C145.371 55.4716 145.74 55.7083 145.821 56.3829C146.088 58.5892 145.977 60.8964 145.977 63.1274L145.982 149.086C145.986 151.055 145.985 153.011 145.964 154.984C145.947 156.427 145.146 157.77 143.571 157.853C141.574 157.958 139.49 157.903 137.481 157.902L82.2413 157.907C80.8362 163.928 73.6325 166.813 68.2823 163.787C66.0236 162.491 64.3721 160.35 63.6976 157.835C63.0221 155.337 63.3197 152.719 64.6377 150.481C65.9249 148.251 68.058 146.632 70.5546 145.999C73.0851 145.362 75.7672 145.766 77.9997 147.117C80.1167 148.4 81.6474 150.464 82.2547 152.864C88.6297 153.009 95.6137 152.873 102.033 152.873H140.983L140.974 58.2049C140.444 57.8636 139.811 57.3866 139.321 56.9843C136.362 54.5545 132.953 52.323 130.075 49.8255C129.027 52.1252 127.102 55.4905 125.834 57.6926C122.378 63.7169 118.543 69.5195 114.357 75.0617C111.337 79.0148 108.353 82.4612 105.205 86.2609L105.053 95.2952C104.935 102.091 105.456 106.909 100.188 112.228C96.3462 116.105 92.4408 119.988 88.577 123.85L84.8032 127.632C84.1278 128.311 83.506 128.962 82.7804 129.597C81.2125 130.97 78.7811 130.187 78.6992 128.006C78.6126 125.578 78.7895 123.073 78.8908 120.625L79.4388 106.419C77.529 104.688 74.614 101.706 72.818 99.8078C71.0847 103.03 69.6855 105.49 67.4134 108.437C60.2939 117.669 50.3565 124.456 39.032 127.347C37.4821 127.743 34.7888 128.029 33.1463 128.247C32.1259 129.096 31.04 130.265 30.0853 131.227L25.5095 135.833L10.6371 150.757L6.45786 154.967C5.3784 156.054 4.23575 157.467 2.77763 157.96C2.62154 157.931 2.46444 157.894 2.3098 157.858C0.18084 157.342 0.0130613 156.244 0.0107677 154.312L0.00631218 66.8738C0.00349493 63.8474 -0.00324914 60.8127 0.00185669 57.7861C0.00404766 56.4658 0.136242 55.705 1.23157 54.8549C6.94273 50.4246 12.6577 45.9971 18.3718 41.5708L65.3996 5.13989C66.8931 3.98257 70.9539 0.656887 72.359 0.0258388ZM72.3011 150.757C69.7816 151.13 68.0354 153.47 68.3981 155.991C68.7625 158.511 71.0975 160.268 73.6199 159.916C76.1569 159.561 77.9229 157.207 77.5586 154.673C77.193 152.138 74.8352 150.382 72.3011 150.757ZM72.9917 5.62546C65.6594 11.4505 58.0202 17.2254 50.594 22.9723L4.99646 58.2628L5.00537 138.854C5.00543 142.24 5.07572 145.965 4.99201 149.327L29.564 124.768C29.9709 120.761 30.5715 117.902 31.9165 114.041C35.8659 103.844 41.5424 96.2836 50.3801 89.6064C52.9155 87.6901 55.3139 86.4688 58.0213 84.9111C57.116 84.1697 55.6907 82.6652 54.8222 81.7883C53.7431 80.6989 52.3472 79.4065 51.3291 78.2958C49.953 78.4334 48.2106 78.4405 46.8068 78.4874L39.2592 78.7636L33.3824 79.0041C31.2434 79.0913 27.7807 79.7639 27.5457 76.6698C27.4582 75.4899 28.3857 74.7086 29.1497 73.9391L40.4533 62.6463C42.9614 60.139 45.5933 57.2185 48.4598 55.1712C51.9949 52.6481 56.5807 52.7288 60.7213 52.6587C64.3408 52.5733 67.9896 52.547 71.6105 52.4137C78.3037 46.6259 84.3428 41.7737 91.7761 36.8666C95.7467 34.2877 99.8151 31.8568 103.966 29.5787C102.606 28.7111 100.267 26.786 98.9405 25.7565L78.4987 9.91984C76.9773 8.74114 74.3292 6.82096 72.9917 5.62546ZM61.7238 88.7333C50.1469 94.1589 41.3117 103.192 36.7552 115.293C35.924 117.502 35.0256 120.68 34.7992 123.035C36.8864 122.654 38.9497 122.137 40.9701 121.489C53.6695 117.054 63.0154 108.503 68.8615 96.4088L69.0753 95.9634C68.2573 95.2364 61.8988 88.7931 61.7238 88.7333ZM100.037 91.9363C97.6718 94.3871 95.252 96.7896 92.783 99.1352C90.0274 101.717 87.213 104.14 84.4334 106.668C84.3618 108.375 83.791 121.129 83.9567 121.391L92.5291 112.802C94.981 110.353 98.529 107.389 99.5063 104.026C100.036 102.202 99.9494 99.7021 99.992 97.7809L100.121 92.0343L100.037 91.9363ZM135.199 22.255C130.646 23.5587 126.149 25.0599 121.726 26.7543C101.874 34.5667 84.1261 46.8876 68.8392 61.6707C65.8095 64.6296 62.8618 67.6777 60.004 70.8029C58.7175 72.2067 56.9977 74.2866 55.7222 75.5428L69.1333 89.0318L77.6566 97.5537C79.0571 98.9546 80.783 100.592 82.1121 102.026C85.7037 98.7451 89.2848 95.5965 92.7429 92.159C109.312 75.6913 122.969 56.4406 131.341 34.5101C132.583 31.2878 133.701 28.0137 134.691 24.7052C134.818 24.2954 135.401 22.5875 135.306 22.2729L135.199 22.255ZM64.8426 57.6659C61.4126 57.7049 57.196 57.568 53.8688 58.1737C50.853 58.7242 47.7749 62.3982 45.6439 64.4638C42.4989 67.5126 39.4956 70.7965 36.3275 73.8143L37.8201 73.7832C42.176 73.6145 46.7636 73.3674 51.0974 73.3288C54.5474 69.4492 57.9794 65.552 61.6792 61.9068C63.0049 60.6008 64.686 58.8021 66.0813 57.6124C65.6909 57.6296 65.2262 57.6629 64.8426 57.6659Z" fill="#4A5565" fill-opacity="0.1"/>
</svg>
