<svg width="139" height="149" viewBox="0 0 139 149" fill="#E9D5FF" xmlns="http://www.w3.org/2000/svg">
<path fill-rule="evenodd" clip-rule="evenodd" d="M67.3543 0.0480857C71.9915 -0.264578 76.8183 0.944897 80.5457 3.75316C84.7606 6.92339 87.5069 11.6508 88.1609 16.8616C88.8131 21.8615 87.4309 26.9137 84.3211 30.8987C81.274 34.7792 76.769 37.5386 71.826 38.1643C71.7629 40.4188 71.8119 42.8921 71.8123 45.1692V58.1311C71.8114 67.184 71.6968 76.4975 71.8396 85.5315C72.9995 84.2869 74.0562 83.4988 75.4666 82.5911C80.24 79.5162 84.5505 79.6743 89.906 79.677L98.5975 79.6858C100.772 79.6885 103.266 79.817 105.351 79.2922C109.103 78.3483 112.089 76.1667 114.025 72.8606C116.063 69.3835 116.001 66.651 115.998 62.8323L115.986 57.4055C113.15 57.2795 109.425 55.504 107.187 53.8411C98.5754 47.4403 96.8167 35.1275 103.479 26.6711C106.662 22.5632 111.389 19.917 116.575 19.3411C121.478 18.7808 126.721 20.2074 130.589 23.2649C134.689 26.469 137.325 31.1728 137.902 36.3225C138.496 41.3427 137.046 46.3904 133.875 50.344C130.854 54.0666 126.337 56.8586 121.516 57.3957C121.359 65.6615 122.601 72.7388 115.926 79.3879C114.634 80.6625 113.181 81.7636 111.602 82.6633C106.794 85.4012 103.075 85.1885 97.8025 85.1858L88.7752 85.178C83.4762 85.178 79.6632 85.3336 75.7176 89.3479C71.6272 93.5094 71.805 97.3251 71.8074 102.594L71.8152 110.203C75.3839 110.83 78.1009 111.891 80.9978 114.139C85.0036 117.29 87.5862 121.891 88.1766 126.933C88.8096 131.955 87.3838 137.019 84.2185 140.987C80.6603 145.426 76.3099 147.676 70.6668 148.321C66.2722 148.69 61.8819 147.565 58.2156 145.131C53.974 142.25 51.0414 137.831 50.0506 132.823C48.1584 122.798 54.2316 113.194 64.2127 110.607C64.8785 110.434 65.5933 110.319 66.2713 110.192L66.2762 100.983C66.2629 96.4708 65.6573 92.8876 62.4139 89.4651C58.3996 85.2303 54.3019 85.179 48.9549 85.1799L40.1238 85.1858C32.882 85.1912 27.7783 84.9779 22.2205 79.5149C15.6071 73.0156 16.5566 65.7902 16.5379 57.4016C13.7012 57.2268 10.0796 55.5718 7.83085 53.8977C3.69362 50.8532 0.947213 46.2978 0.19804 41.2385C-1.31877 30.5592 6.03693 20.8094 16.7937 19.3821C21.8308 18.7345 26.9222 20.0754 30.9744 23.1164C35.0949 26.2563 37.7814 30.901 38.4353 36.0178C39.1292 41.0556 37.7406 46.1578 34.5857 50.1623C31.5288 54.0601 27.0391 56.7725 22.0818 57.4055L22.074 63.2297C22.0727 68.1137 22.2073 71.1205 25.6512 75.133C27.28 77.0299 30.082 78.6501 32.5018 79.259C34.7439 79.8227 37.7093 79.6866 40.0848 79.6848L48.1424 79.677C52.0551 79.6743 55.9704 79.5272 59.659 81.0754C62.0023 82.0582 64.5536 83.697 66.2498 85.594C66.3461 79.3665 66.2752 72.9819 66.2752 66.7366L66.2625 38.1692C63.19 37.9733 59.5341 36.2035 57.1443 34.3332C53.1045 31.206 50.4816 26.6129 49.8523 21.5647C48.5403 10.4801 56.3098 1.26468 67.3543 0.0480857ZM82.7937 128.389C82.3596 120.824 75.8295 115.042 68.2127 115.48C60.6075 115.918 54.797 122.392 55.2293 129.946C55.6621 137.499 62.1746 143.277 69.781 142.855C77.3988 142.432 83.2265 135.953 82.7937 128.389ZM33.0174 36.8791C32.1483 29.3459 25.2868 23.9427 17.7029 24.8196C10.1395 25.6945 4.71775 32.4862 5.58378 39.9993C6.45015 47.5128 13.2784 52.9108 20.8455 52.0647C28.4326 51.2159 33.8861 44.4127 33.0174 36.8791ZM132.443 36.8899C131.58 29.357 124.723 23.9497 117.139 24.8215C109.577 25.6911 104.152 32.4773 105.012 39.9895C105.873 47.502 112.696 52.904 120.262 52.0637C127.849 51.2208 133.306 44.4227 132.443 36.8899ZM82.7439 17.802C81.965 10.2693 75.1837 4.78968 67.5984 5.56469C60.0165 6.3397 54.5022 13.0718 55.2801 20.6018C56.0583 28.1318 62.8344 33.6106 70.4168 32.8401C78.0027 32.069 83.5225 25.3352 82.7439 17.802Z" fill="#E9D5FF" fill-opacity="0.1"/>
</svg>
