<svg xmlns="http://www.w3.org/2000/svg" viewBox="0 0 1024 1024" width="1024" height="1024">
  <path d="M 875 354 L 870 354 L 867 357 L 864 357 L 826 380 L 823 380 L 809 388 L 803 393 L 800 393 L 785 403 L 782 403 L 761 416 L 758 416 L 745 425 L 745 668 L 702 693 L 699 693 L 671 711 L 662 714 L 642 727 L 638 725 L 638 489 L 635 488 L 627 491 L 616 499 L 613 499 L 602 507 L 572 522 L 561 530 L 549 535 L 532 546 L 525 548 L 522 552 L 521 899 L 523 907 L 532 907 L 550 896 L 557 894 L 559 891 L 562 891 L 583 880 L 593 873 L 596 873 L 637 850 L 640 850 L 642 847 L 649 845 L 694 819 L 697 819 L 733 798 L 736 798 L 741 793 L 744 793 L 747 790 L 763 783 L 780 772 L 801 762 L 807 757 L 810 757 L 831 744 L 834 744 L 850 733 L 863 728 L 875 718 Z M 150 352 L 147 355 L 147 717 L 156 726 L 241 770 L 264 785 L 268 785 L 289 798 L 302 803 L 313 811 L 316 811 L 361 837 L 370 840 L 399 858 L 402 858 L 403 860 L 406 860 L 428 873 L 431 873 L 437 878 L 471 896 L 474 896 L 492 907 L 500 907 L 503 904 L 503 556 L 497 548 L 463 530 L 457 525 L 421 507 L 395 491 L 386 488 L 383 491 L 383 725 L 380 727 L 332 698 L 329 698 L 309 685 L 297 680 L 288 673 L 279 670 L 276 667 L 276 425 L 271 419 L 239 403 L 224 393 L 221 393 L 210 385 L 197 380 L 188 373 L 180 370 L 174 365 Z M 315 423 L 324 431 L 327 431 L 347 444 L 350 444 L 365 454 L 377 459 L 411 480 L 420 483 L 429 490 L 432 490 L 446 498 L 448 501 L 455 503 L 466 511 L 478 516 L 507 534 L 516 534 L 521 532 L 523 529 L 540 521 L 586 493 L 598 488 L 604 483 L 614 479 L 632 467 L 635 467 L 708 425 L 705 419 L 670 401 L 645 385 L 633 380 L 627 375 L 619 372 L 604 362 L 601 362 L 581 349 L 511 310 L 396 375 L 391 380 L 378 385 L 321 419 L 318 419 Z M 147 324 L 147 327 L 151 333 L 154 333 L 174 346 L 177 346 L 183 351 L 195 356 L 210 366 L 213 366 L 215 369 L 218 369 L 229 377 L 236 379 L 266 397 L 285 387 L 296 379 L 299 379 L 300 377 L 303 377 L 311 371 L 326 364 L 337 356 L 349 351 L 360 343 L 363 343 L 384 330 L 387 330 L 401 320 L 404 320 L 430 304 L 433 304 L 442 297 L 470 283 L 471 281 L 474 281 L 479 276 L 488 273 L 508 260 L 515 260 L 535 273 L 544 276 L 549 281 L 556 283 L 567 291 L 570 291 L 572 294 L 579 296 L 590 304 L 593 304 L 595 307 L 598 307 L 627 325 L 648 335 L 673 351 L 686 356 L 695 363 L 704 366 L 720 377 L 727 379 L 753 395 L 761 395 L 810 366 L 813 366 L 828 356 L 831 356 L 852 343 L 864 338 L 876 328 L 876 322 L 873 318 L 858 308 L 849 305 L 844 300 L 841 300 L 821 287 L 818 287 L 803 277 L 800 277 L 790 269 L 787 269 L 767 256 L 763 256 L 753 248 L 741 243 L 730 235 L 707 222 L 704 222 L 681 207 L 678 207 L 676 204 L 664 199 L 644 186 L 610 168 L 604 163 L 601 163 L 586 153 L 583 153 L 563 140 L 560 140 L 531 122 L 518 116 L 505 116 L 495 121 L 479 132 L 472 134 L 442 153 L 435 155 L 424 163 L 394 178 L 378 189 L 375 189 L 370 194 L 367 194 L 366 196 L 344 207 L 321 222 L 313 225 L 309 229 L 273 248 L 262 256 L 259 256 L 244 266 L 241 266 L 228 274 L 226 277 L 218 279 L 204 289 L 196 292 L 190 297 L 187 297 L 185 300 L 182 300 L 162 313 L 159 313 L 151 318 Z" fill="#000" fill-rule="evenodd"/>
</svg>
