<svg width="143" height="158" viewBox="0 0 143 158" fill="#E9D5FF" xmlns="http://www.w3.org/2000/svg">
<path d="M55.824 25.5364C57.1969 25.4644 58.5948 26.1414 58.7187 27.5907C58.8732 29.3984 56.3936 31.225 55.2572 32.4232C52.8759 34.9341 50.2248 37.2457 47.9346 39.8204C49.7915 41.8518 59.9041 51.4009 60.4319 52.7368C60.6534 53.2972 60.6376 53.9918 60.3801 54.5375C60.0166 55.3076 59.4282 55.7126 58.6598 56.0204C58.2133 56.057 57.6501 56.0574 57.2363 55.8671C56.2522 55.4143 45.6762 44.7388 44.4778 43.309C44.056 42.8058 43.7355 42.2591 43.5151 41.641C43.0349 40.2939 43.1187 38.7278 43.7628 37.4486C44.0474 36.8832 44.433 36.3683 44.85 35.8933C46.1942 34.3621 47.7743 32.9941 49.2106 31.5443C50.9583 29.7804 52.6742 27.7718 54.5943 26.205C54.9836 25.8875 55.3483 25.6991 55.824 25.5364Z" fill="#E9D5FF" fill-opacity="0.1"/>
<path d="M84.7944 25.5381C85.219 25.5281 85.6931 25.527 86.096 25.6716C87.0492 26.0137 95.7838 34.8502 96.9939 36.2869C97.3655 36.728 97.6706 37.197 97.8958 37.7282C98.4513 39.0104 98.4632 40.4616 97.9284 41.7524C97.7182 42.2462 97.3974 42.8921 97.025 43.2853C93.0874 47.4417 88.969 51.4728 84.8624 55.465C84.6088 55.7116 84.1934 55.8963 83.8658 56.0255C81.6287 56.0988 80.0068 54.1834 81.4367 52.1808C82.1851 51.127 83.2245 50.283 84.1055 49.3501C87.1248 46.1531 90.7152 43.1074 93.5821 39.808C91.9591 37.9916 83.3159 30.0403 82.8858 28.5241C82.7162 27.9264 82.763 27.281 83.0838 26.7401C83.4891 26.0567 84.0571 25.7464 84.7944 25.5381Z" fill="#E9D5FF" fill-opacity="0.1"/>
<path d="M76.3783 25.6684C78.2187 25.6581 79.868 27.0049 79.1479 28.8739C75.8023 37.5567 72.8986 46.4719 68.948 54.9072C68.5339 55.7916 67.8999 56.2086 67.0281 56.5393C65.0729 56.5902 63.5555 55.1548 64.4382 53.1768C67.8082 45.6252 70.4972 37.8364 73.4279 30.1123C73.8792 28.9229 74.3496 27.632 74.9981 26.5453C75.2158 26.181 75.9869 25.8439 76.3783 25.6684Z" fill="#E9D5FF" fill-opacity="0.1"/>
<path fill-rule="evenodd" clip-rule="evenodd" d="M106.869 0.00624283C110.338 0.0101258 112.96 0.947517 114.377 4.37555C115.087 6.09301 114.931 7.819 114.894 9.6327C120.926 9.25809 125.516 9.28668 128.825 15.2091C131.301 19.6419 131.835 25.2712 130.476 30.112C133.451 30.8647 136.111 32.1113 138.315 34.2476C141.996 37.8134 142.866 41.2851 142.89 46.1713C142.916 51.3526 142.907 56.5204 142.906 61.691L142.941 104.39C142.972 111.92 143.939 122.114 136.69 126.928C132.068 129.998 129.7 129.893 124.378 129.966C121.997 129.994 119.617 130.034 117.238 130.088L84.5958 130.612L87.1183 136.886C87.5234 137.899 88.2231 139.513 88.4701 140.501C90.8413 140.625 93.4323 140.338 95.7777 140.624C103.767 141.596 106.411 151.334 99.9359 156.292C98.1206 157.5 96.5684 157.911 94.4259 157.932C90.8279 157.968 87.2145 157.952 83.6173 157.953L52.3355 157.954C48.1516 157.953 43.7999 158.553 40.5242 155.437C38.8168 153.806 37.8449 151.557 37.8314 149.201C37.82 148.192 37.9817 147.011 38.381 146.075C41.1415 139.608 47.1704 140.511 52.9202 140.524C53.8547 137.748 55.5406 133.838 56.6471 131.049L27.9904 131.499L20.9836 131.595C17.7697 131.653 14.8013 131.815 11.6525 130.978C3.2943 128.758 0.692172 120.383 0.256714 112.753C-0.0268731 107.785 0.0369662 102.821 0.0356369 97.8526L0.0392611 57.6698C0.0373995 48.9912 -1.00025 37.1705 7.71535 31.9575C8.91138 31.2422 10.2863 30.8056 11.6126 30.3963C10.3989 27.5429 9.61369 22.5993 9.95995 19.4893C10.4079 15.4676 11.8205 12.2918 14.9879 9.6568C19.1819 6.16793 24.732 7.0928 29.8146 7.59321C30.7139 3.01319 34.7931 0.228276 39.3137 0.0146755L78.2559 0.00262885C87.7934 0.00166397 97.3286 -0.0044914 106.869 0.00624283ZM96.4905 145.699C95.38 145.158 86.2341 145.363 84.6345 145.363H53.796C51.3063 145.363 48.2704 145.29 45.8107 145.432C43.7285 145.904 42.303 147.98 42.8461 150.081C43.117 151.121 43.7985 152.009 44.7355 152.543C46.0803 153.305 55.2425 153.041 57.233 153.039L88.87 153.041C90.7412 153.041 93.8368 153.138 95.6122 152.976C99.7172 151.541 99.4662 147.15 96.4905 145.699ZM76.5682 130.753C71.6923 130.883 66.8149 130.948 61.9372 130.948C60.9072 133.971 59.3899 137.491 58.1741 140.504L65.1749 140.534C71.0537 140.531 77.4188 140.396 83.2537 140.512C82.0664 137.512 80.3998 133.679 79.3431 130.692L76.5682 130.753ZM137.984 110.31C132.986 110.093 126.826 110.25 121.761 110.25L6.93977 110.257C6.3942 110.265 5.78558 110.207 5.33062 110.456C4.95179 110.917 5.02592 111.202 5.06846 111.78C5.39559 116.22 6.12598 121.766 9.79203 124.783C12.9077 127.345 18.1186 126.786 21.9464 126.725L70.2657 125.995L120.343 125.133C123.233 125.104 126.205 125.102 129.087 124.856C130.306 124.751 131.7 124.174 132.757 123.572C135.675 121.726 136.526 120.909 137.367 117.285C137.842 115.242 138.083 112.407 137.984 110.31ZM128.668 34.7499C123.961 43.6226 116.382 48.6769 107.637 53.009C103.914 59.6615 98.7617 65.7008 91.8237 69.278C90.0916 70.1709 87.1773 70.8421 85.8861 72.0354C83.8083 73.9561 82.9873 77.1394 82.7559 79.8561C87.362 80.1867 92.1193 79.9963 95.3187 83.8026C99.8792 89.2288 99.1005 96.0817 92.9617 99.8595C91.0264 101.045 89.1975 101.217 86.9745 101.323C77.272 101.788 67.4774 101.565 57.802 100.715C53.3315 100.316 49.0948 100.031 46.1417 96.2564C42.5606 91.9081 43.9422 86.7759 48.1701 83.4882C51.5965 80.824 55.365 79.8153 59.66 79.6501C59.6807 78.4393 59.6886 77.2955 59.2638 76.1277C56.9351 69.7277 49.7176 67.4176 44.6654 63.7052C41.9241 61.6907 39.6531 59.4076 37.5112 56.7916C36.7118 55.8191 35.933 54.6355 35.1603 53.7258C28.1784 51.2706 21.5258 46.317 17.0864 40.4263C16.0752 39.0252 14.2982 36.494 13.6059 34.8873C10.8804 35.6763 8.42526 36.5725 7.06782 39.2373C4.52245 44.2348 4.94866 51.1322 4.93678 56.5507L4.8945 92.6894C4.8951 96.7558 4.80817 101.327 4.98148 105.364L137.941 105.372L137.927 50.6527C137.93 46.2861 138.598 41.2674 135.154 38.0134C133.141 36.1119 131.348 35.2811 128.668 34.7499ZM82.4141 84.7434C76.3825 84.4756 69.6961 83.9565 63.6732 84.3158C58.8047 84.5229 54.0478 84.4372 50.3059 88.2382C47.4869 91.1021 50.0024 94.5052 53.2452 95.3119C55.784 95.9436 58.8785 96.0625 61.535 96.2323C67.3741 96.636 73.2285 96.795 79.081 96.7105C81.398 96.6948 87.4148 96.7813 89.294 96.1793C90.2333 95.8719 91.084 95.3419 91.773 94.6361C92.657 93.7439 93.4693 92.4611 93.4051 91.1715C93.3277 89.6223 92.3538 87.6243 91.2233 86.5733C90.6303 86.0195 89.905 85.6254 89.1164 85.4277C87.4191 84.9899 84.2397 84.8245 82.4141 84.7434ZM109.255 17.6232C93.6343 18.114 78.0041 18.255 62.377 18.0461L42.5936 17.7847C39.6224 17.7579 36.7201 17.6556 33.7336 17.7196C33.4154 21.676 32.93 26.307 32.9278 30.2035C32.9233 39.0878 35.9343 47.6812 41.7347 54.4703C44.6889 57.9279 46.9249 59.4567 50.6985 61.838C57.7459 66.1686 64.6651 70.0082 64.6035 79.4513C69.0064 79.4132 73.4097 79.4981 77.8077 79.7067C78.3731 75.1356 79.5816 70.9957 83.3841 67.883C84.7816 66.7392 87.0914 66.0107 88.8072 65.2676C90.0947 64.7059 91.3231 64.0177 92.4725 63.2125C105.096 54.4072 106.659 42.4594 108.516 28.4086C108.689 27.0998 109.673 18.1101 109.378 17.622L109.255 17.6232ZM28.1535 34.4006C25.0649 34.4119 21.9381 34.5862 18.9166 34.5957C21.3949 38.2294 22.6257 39.7865 25.9053 42.7308C27.7556 44.32 29.1299 45.3329 31.2885 46.5219C29.9562 43.2875 29.0374 39.8989 28.5546 36.4365C28.5066 36.0716 28.4062 34.5316 28.1535 34.4006ZM112.555 34.5777C112.199 37.5713 111.045 43.192 110.295 46.2569C112.337 44.9716 114.83 43.3684 116.659 41.7936C119.974 38.8152 120.522 38.0722 123.202 34.6319C119.654 34.5804 116.105 34.5626 112.555 34.5777ZM125.501 29.8578C127.365 24.0168 126.196 13.356 117.912 14.3622C116.782 14.4632 115.727 14.5584 114.603 14.7176C114.386 19.732 113.96 24.7356 113.323 29.7144L122.138 29.7542C123.11 29.7677 124.58 29.7517 125.501 29.8578ZM29.2251 12.4323C27.5648 12.2817 23.2688 11.8296 21.6734 12.0589C19.6076 12.3187 18.002 13.1213 16.7445 14.7983C13.4434 19.2009 14.9003 25.0881 16.6213 29.7409C18.5939 29.6636 20.5672 29.6028 22.5408 29.5578C24.3648 29.5225 26.1891 29.5027 28.0134 29.4988C28.1856 23.8371 28.8869 18.1065 29.2251 12.4323ZM55.4463 4.91524C50.1403 4.9144 44.2478 4.78242 39.002 4.94054C34.2772 5.51468 34.3468 9.18418 34.177 12.9805C42.9599 13.4836 53.805 13.2395 62.7273 13.2383C76.8045 13.2823 90.882 13.174 104.957 12.913C106.394 12.8801 108.441 12.8918 109.828 12.7431C109.899 11.0148 110.093 7.87172 109.924 6.24037C109.619 5.81478 109.398 5.47955 109.009 5.11763C107.083 4.76331 102.814 4.90558 100.64 4.91163L55.4463 4.91524Z" fill="#E9D5FF" fill-opacity="0.1"/>
</svg>
