<svg width="164" height="145" viewBox="0 0 164 145" fill="none" xmlns="http://www.w3.org/2000/svg">
<path d="M57.3568 117.232C58.9395 117.1 68.3308 116.997 69.3981 117.318C69.9445 117.482 70.4047 117.937 70.6535 118.442C70.8783 118.897 70.9574 119.399 70.7639 119.879C70.4532 120.648 70.0345 121.008 69.2949 121.347C68.0896 121.541 57.9678 121.541 57.1029 121.234C56.6429 121.071 56.2363 120.676 56.0275 120.24C55.7557 119.674 55.7455 118.977 55.9839 118.396C56.2403 117.771 56.7713 117.484 57.3568 117.232Z" fill="#4A5565" fill-opacity="0.1"/>
<path fill-rule="evenodd" clip-rule="evenodd" d="M9.40541 28.7151C13.5487 28.5746 18.2929 28.6911 22.4806 28.6906L64.2872 28.6877C67.1582 28.6879 70.0459 28.6584 72.9162 28.7278C73.3541 28.7483 73.9701 28.9838 74.254 29.3322C75.5835 30.9632 74.5931 32.9216 72.5285 32.9299C70.6575 32.9373 68.9026 32.9417 67.0958 32.9406L15.2072 32.9348C14.4964 32.9345 13.7624 32.9316 13.0665 32.9338C9.90872 32.9439 7.09089 32.5724 5.1349 35.5647C3.93374 37.4022 4.256 39.1066 4.20717 41.2053C4.17807 42.4597 4.2064 43.7187 4.20717 44.967L4.21889 106.906L122.433 106.896L122.422 77.0588C122.422 75.746 122.403 74.5017 122.473 73.1574C122.567 71.3328 124.796 70.74 125.968 71.8117C126.924 72.6865 126.666 75.3363 126.664 76.6672L126.653 82.9123L126.66 117.883C126.66 119.518 126.72 121.298 126.452 122.902C125.872 126.377 122.865 129.803 119.417 130.651C117.377 131.151 114.802 131.052 112.679 131.05L106.278 131.043L82.507 131.064C82.9458 131.913 83.5522 133.482 83.9396 134.402C84.7525 136.307 85.5498 138.218 86.3331 140.136C89.0848 140.187 91.8578 140.1 94.6066 140.155C96.3717 140.191 99.7249 139.536 100.191 141.872C100.296 142.421 100.16 142.988 99.8175 143.43C98.8071 144.756 96.6631 144.397 95.1632 144.393L89.1915 144.389L71.5167 144.494L39.3634 144.398C35.8986 144.356 32.3929 144.44 28.9259 144.379C28.265 144.368 27.6762 144.296 27.1613 143.845C26.7166 143.45 26.4532 142.89 26.4318 142.296C26.4108 141.719 26.6365 141.159 27.0529 140.758C27.9803 139.86 30.686 140.145 31.9972 140.146C34.7111 140.135 37.425 140.143 40.1388 140.171C41.4279 137.443 42.813 133.886 44.005 131.053L13.0773 131.051C9.35433 131.058 6.64322 131.302 3.57533 128.774C1.57575 127.13 0.321206 124.749 0.0958396 122.17C-0.0567048 120.375 0.0178774 117.93 0.0206443 116.095L0.0196678 41.966C0.0189999 40.7022 -0.0367683 38.579 0.100722 37.3889C0.328541 35.4338 1.13565 33.5912 2.41811 32.0979C4.26393 29.9393 6.62505 28.9429 9.40541 28.7151ZM48.548 131.042C47.6618 133.447 45.8517 137.661 44.7814 140.003L78.005 140.026L81.7902 140.012C80.7684 137.684 78.8516 133.401 78.0353 131.052L48.548 131.042ZM122.43 111.183C107.392 111.003 92.0221 111.157 76.9621 111.157L4.22084 111.164C4.20805 113.248 4.04509 121.075 4.45326 122.675C4.71364 123.686 5.24314 124.609 5.98646 125.344C7.94786 127.297 10.7908 126.918 13.3517 126.919L44.5812 126.907C61.6596 126.772 78.7388 126.775 95.8175 126.918L109.857 126.917C112.387 126.918 115.097 126.996 117.609 126.807C118.806 126.716 119.828 126.031 120.699 125.241C121.373 124.467 121.876 123.734 122.154 122.734C122.702 120.762 122.423 113.656 122.43 111.183Z" fill="#4A5565" fill-opacity="0.1"/>
<path fill-rule="evenodd" clip-rule="evenodd" d="M121.539 0.101852C123.005 0.0878908 131.163 -0.24449 131.881 0.37236C132.985 1.32094 134.262 3.4439 135.153 4.68681L155.265 32.6839C157.649 36.0015 160.026 39.3044 162.415 42.638C163.603 43.9493 163.015 46.0341 161.148 46.2073C158.854 46.4203 156.022 46.2393 153.695 46.2435C152.62 48.4826 151.228 50.9854 150.063 53.2034L143.087 66.4583C144.722 69.0178 144.888 71.8586 142.487 74.0452C141.414 75.0145 139.996 75.516 138.553 75.4358C137.114 75.3614 135.768 74.7081 134.817 73.6263C133.846 72.5005 133.358 71.0358 133.461 69.552C133.564 68.1025 134.242 66.7539 135.343 65.805C136.503 64.8073 137.806 64.4386 139.312 64.5511C141.779 60.2137 144.046 55.4432 146.464 51.054C147.337 49.4687 148.131 47.7801 149.043 46.2171C147.14 46.2343 145.059 46.1655 143.136 46.1497L142.638 47.0491L136.271 59.2415C135.415 60.8537 134.287 62.6944 132.411 63.1712C130.283 63.6751 127.853 63.4751 125.697 63.3811C109.305 62.6668 93.7961 54.2131 84.4599 40.7034C83.0745 38.6983 80.9622 36.1865 81.9189 33.554C82.6618 31.5106 83.8531 29.4894 84.8769 27.556C86.5657 24.3336 88.2739 21.1209 89.9999 17.9183C88.1566 15.6987 86.4727 12.8066 84.7314 10.4612C83.0827 8.24193 81.5247 5.82051 79.9843 3.5247C79.299 2.50335 79.9435 1.44547 80.6874 0.679977C82.0678 0.327078 84.2401 0.427282 85.7343 0.412399L92.3652 0.346969L121.539 0.101852ZM139.759 69.0325C139.429 68.7127 138.951 68.5959 138.51 68.7259C137.84 68.9235 137.453 69.6235 137.643 70.2962C137.832 70.9685 138.526 71.3643 139.201 71.1839C139.646 71.0649 139.992 70.7159 140.107 70.2708C140.223 69.8256 140.09 69.3523 139.759 69.0325ZM92.6747 21.7884C90.527 25.6577 88.5627 29.6617 86.4579 33.5579C86.229 33.9822 85.9334 34.5283 85.7617 34.971C86.1922 36.0316 87.7576 38.2367 88.456 39.2005C93.7819 46.5182 101.02 52.2295 109.376 55.7083C114.938 58.0571 121.905 59.3795 127.945 59.3118C128.773 59.3026 130.655 59.3769 131.394 59.1673C132.007 58.498 133.531 55.4283 134.073 54.3919L138.408 46.139L113.427 45.9681C112.355 45.96 110.904 45.9926 109.874 45.8987C108.511 44.9765 105.275 39.9248 104.126 38.2757L95.1074 25.3362C94.7706 24.8502 92.9625 22.1218 92.6747 21.7884ZM125.49 4.29814L85.7949 4.55791L108.76 37.4192C109.488 38.4612 111.092 40.6327 111.657 41.6653C113.639 41.7209 115.621 41.7472 117.603 41.7435L156.885 42.0491C155.851 40.7539 154.601 38.8929 153.609 37.512L129.717 4.25224L125.49 4.29814Z" fill="#4A5565" fill-opacity="0.1"/>
<path d="M50.1333 76.8764C52.714 76.741 56.2612 76.8535 58.9293 76.8526L100.236 76.8545C104.312 76.8545 108.399 76.8468 112.476 76.8612C112.834 76.8869 114.133 76.9461 114.398 77.1426C116.076 78.3934 115.585 80.4693 113.659 81.0523C110.689 81.1744 107.129 81.078 104.097 81.078L62.7936 81.079C58.6514 81.079 54.5095 81.0942 50.3666 81.058C48.7509 81.0437 47.7075 79.3321 48.5619 77.9211C48.976 77.2371 49.3825 77.0596 50.1333 76.8764Z" fill="#4A5565" fill-opacity="0.1"/>
<path d="M19.8336 47.1338C21.3408 47.1238 27.5329 46.7563 28.1631 47.8049C30.8769 52.3203 23.621 51.3824 21.7058 51.3847L21.7017 62.4528C24.8877 62.5216 28.3904 62.4865 31.5796 62.4512C31.5741 60.9158 31.1757 58.05 32.8198 57.2565C33.4382 56.9581 34.3416 57.2466 34.9155 57.5528C36.2403 58.7845 35.7427 60.4597 35.7885 62.1091C35.8387 63.922 36.1929 66.5138 33.7102 66.6456C31.5066 66.7628 29.3334 66.7141 27.1422 66.7151L22.3242 66.7149C17.2304 66.7122 17.5299 66.5155 17.5287 61.4782L17.5316 56.0709L17.5276 51.758C17.5177 49.5965 17.0299 47.3339 19.8336 47.1338Z" fill="#4A5565" fill-opacity="0.1"/>
<path d="M19.4046 74.1259C21.0109 74.061 22.6992 74.1049 24.3055 74.083C25.5168 74.0658 27.051 73.9198 28.0377 74.6831C29.0311 75.3528 28.942 77.384 27.8767 77.9173C26.3423 78.6853 23.4504 78.358 21.7106 78.3599C21.6443 82.0053 21.7007 85.8768 21.7001 89.5374C24.9626 89.589 28.3124 89.5499 31.5815 89.5489C31.5754 87.3451 30.954 83.2446 34.5839 84.3427C35.6332 85.0115 35.9253 85.9169 35.8059 87.1094C35.6292 88.8753 36.6492 93.5978 33.8309 93.6522C29.0291 93.7448 24.3315 93.6932 19.5426 93.656C17.0172 93.636 17.5309 90.0002 17.5295 88.2648L17.5272 83.1616C17.5272 81.3022 17.5219 79.4389 17.5293 77.5795C17.5359 75.9071 17.3964 74.5295 19.4046 74.1259Z" fill="#4A5565" fill-opacity="0.1"/>
<path d="M50.2999 51.0434C55.8102 50.8985 61.9672 51.0257 67.5457 51.0259L74.1245 51.0255C75.3057 51.0247 78.2619 50.8326 79.1369 51.4432C79.6062 51.7687 79.9171 52.2766 79.9935 52.8426C80.1788 54.2071 79.2697 55.1176 77.9561 55.2544C73.4467 55.4193 67.9792 55.2776 63.414 55.2796L55.163 55.2816C54.0052 55.2816 50.1387 55.4307 49.3839 55.0265C47.6072 54.0747 47.7651 51.4231 50.2999 51.0434Z" fill="#4A5565" fill-opacity="0.1"/>
<path d="M50.3869 60.8669C52.022 60.7937 54.1581 60.8495 55.8258 60.8494L73.6848 60.8513C74.9901 60.8507 76.8025 60.7829 78.0618 60.9024C80.5221 61.136 80.8889 64.709 77.9389 65.093C72.5852 65.2444 66.4855 65.1094 61.0615 65.1104H54.0914C52.9625 65.1101 50.0707 65.2939 49.2045 64.7304C48.7165 64.4064 48.3817 63.8975 48.2773 63.3213C48.0215 61.8767 49.0669 61.0446 50.3869 60.8669Z" fill="#4A5565" fill-opacity="0.1"/>
<path d="M50.1574 86.7162C51.6573 86.6485 53.5192 86.6923 55.0386 86.6914L72.6237 86.6876C73.6333 86.6876 78.1678 86.5702 78.8798 86.9404C79.4293 87.2266 79.8253 87.7389 79.9624 88.3428C80.2839 89.6995 79.3715 90.6831 78.0855 90.934L60.7089 90.9416C58.9809 90.9426 50.1906 91.0952 49.4603 90.7203C48.8993 90.435 48.4848 89.9256 48.3192 89.3188C47.9445 87.9345 48.8692 86.9986 50.1574 86.7162Z" fill="#4A5565" fill-opacity="0.1"/>
<path d="M42.0351 70.7632C42.9481 70.6531 43.5268 70.7798 44.0965 71.5157C45.2731 73.0364 44.3191 74.0496 43.1757 74.9979C38.7818 78.6424 34.4438 82.302 30.0275 85.915C29.641 86.2308 29.0138 86.6133 28.5403 86.8099C27.2181 87.1381 26.1204 85.3569 25.4332 84.4439C24.4719 83.2132 22.1479 80.8118 23.7925 79.3875C26.1048 77.3859 27.335 80.3157 28.5213 81.5188L28.6238 81.6218C31.2115 79.3884 34.0309 77.1789 36.6546 74.9703C37.7355 74.0601 40.9916 71.2722 42.0351 70.7632Z" fill="#4A5565" fill-opacity="0.1"/>
<path d="M42.108 43.7618C43.3064 43.676 44.3479 44.1941 44.5813 45.5024C44.7491 46.4432 44.1938 47.1449 43.5022 47.7218C39.2998 51.2285 35.0566 54.6873 30.8417 58.1799C30.3432 58.593 28.8245 59.8308 28.1598 59.7593C26.9341 59.6277 25.9952 58.1075 25.2874 57.1686C24.1929 55.7834 22.0849 53.7891 24.0523 52.186C26.1071 50.5115 27.6183 53.3073 28.5954 54.6837C29.1211 54.1738 29.7582 53.6509 30.3268 53.1837C33.9045 50.2442 37.4127 47.2123 41.0263 44.3187C41.3421 44.0657 41.7308 43.8995 42.108 43.7618Z" fill="#4A5565" fill-opacity="0.1"/>
</svg>
