<svg xmlns="http://www.w3.org/2000/svg" id="Layer_2" data-name="Layer 2" viewBox="0 0 502.84 186.99">
  <defs>
    <style>
      .cls-1 {
        fill: #f5ff67;
      }

      .cls-2 {
        fill: #f6f1df;
      }

      .cls-3 {
        fill: #79a66f;
      }
    </style>
  </defs>
  <g id="Layer_1-2" data-name="Layer 1">
    <g>
      <g>
        <path class="cls-2" d="m214.54,0h22.99c5.95,0,10.41,1.65,13.39,4.95,2.97,3.3,4.49,8.18,4.56,14.65l.19,39c.06,8.21-1.36,14.39-4.27,18.53s-7.73,6.21-14.45,6.21h-22.41V0Zm19.69,68.58c3.04,0,4.56-1.49,4.56-4.46V21.15c0-1.88-.15-3.28-.44-4.22-.29-.94-.83-1.57-1.6-1.89-.78-.32-1.97-.49-3.59-.49h-1.84v54.03h2.91Z"/>
        <path class="cls-2" d="m261.78,83.33V0h33.37v16.1h-16.39v16.2h15.71v15.72h-15.71v19.11h17.46v16.2h-34.44Z"/>
        <path class="cls-2" d="m301.16,83.33V0h33.37v16.1h-16.39v16.2h15.71v15.72h-15.71v19.11h17.46v16.2h-34.44Z"/>
        <path class="cls-2" d="m340.55,0h22.02c6.66,0,11.41,2.15,14.26,6.45,2.85,4.3,4.27,10.59,4.27,18.87s-1.26,14.52-3.78,18.72c-2.52,4.21-7.05,6.31-13.58,6.31h-6.79v32.98h-16.39V0Zm17.36,35.31c2,0,3.48-.37,4.41-1.12.94-.74,1.55-1.81,1.84-3.2.29-1.39.44-3.38.44-5.97,0-3.49-.39-6.01-1.16-7.57s-2.33-2.33-4.66-2.33h-1.84v20.18h.97Z"/>
        <path class="cls-2" d="m214.54,174.33v-83.33h33.37v16.2h-16.59v13.29h15.71v16.01h-15.71v37.83h-16.78Z"/>
        <path class="cls-2" d="m256.69,169.29c-3.33-3.88-5-9.64-5-17.27v-61.02h16.2v60.34c0,2.65.26,4.72.78,6.21.52,1.49,1.62,2.23,3.3,2.23s2.78-.73,3.3-2.18c.52-1.46.78-3.54.78-6.26v-60.34h16.2v61.02c0,7.63-1.67,13.39-5,17.27-3.33,3.88-8.42,5.82-15.28,5.82s-11.95-1.94-15.28-5.82Z"/>
        <path class="cls-2" d="m298.06,174.33v-83.33h17.17l7.66,39.87v-39.87h16.1v83.33h-16.3l-8.34-41.71v41.71h-16.3Z"/>
        <path class="cls-2" d="m345.79,91h22.99c5.95,0,10.41,1.65,13.39,4.95,2.97,3.3,4.49,8.18,4.56,14.65l.19,39c.06,8.21-1.36,14.39-4.27,18.53s-7.73,6.21-14.45,6.21h-22.41v-83.33Zm19.69,68.58c3.04,0,4.56-1.49,4.56-4.46v-42.97c0-1.88-.15-3.28-.44-4.22-.29-.94-.83-1.57-1.6-1.89-.78-.32-1.97-.49-3.59-.49h-1.84v54.03h2.91Z"/>
        <path class="cls-2" d="m392.25,174.33v-83.33h16.1v83.33h-16.1Z"/>
        <path class="cls-2" d="m414.47,174.33v-83.33h17.17l7.66,39.87v-39.87h16.1v83.33h-16.3l-8.34-41.71v41.71h-16.3Z"/>
        <path class="cls-2" d="m465.93,168.75c-2.94-4.23-4.41-10.65-4.41-19.26v-35.89c0-7.7,1.71-13.52,5.14-17.46,3.43-3.94,8.54-5.92,15.33-5.92,5.5,0,9.76,1.1,12.81,3.3,3.04,2.2,5.14,5.4,6.3,9.6,1.16,4.2,1.75,9.6,1.75,16.2h-16.3v-7.47c0-2-.28-3.56-.82-4.66-.55-1.1-1.54-1.65-2.96-1.65-3.17,0-4.75,2.07-4.75,6.21v40.36c0,2.52.32,4.43.97,5.72.65,1.29,1.78,1.94,3.4,1.94s2.75-.65,3.39-1.94c.65-1.29.97-3.2.97-5.72v-11.93h-4.46v-14.36h20.37v48.5h-6.69l-2.81-6.98c-2.98,5.17-7.57,7.76-13.78,7.76s-10.49-2.12-13.44-6.35Z"/>
      </g>
      <rect class="cls-1" x="85.28" y="-22.75" width="14.38" height="233.41" transform="translate(-39.35 92.84) rotate(-44.97)"/>
      <path class="cls-1" d="m119.49,91.41l-36.36-36.36c-3.47-3.47-8.08-5.38-12.99-5.38h-29.23v-14.38h29.23c8.75,0,16.97,3.41,23.15,9.59l36.36,36.36-10.17,10.17Z"/>
      <path class="cls-1" d="m118.57,185.75l-46.12-46.11c-6.18-6.18-9.59-14.41-9.59-23.15v-44.87h14.38v44.87c0,4.91,1.91,9.52,5.38,12.99l46.12,46.11-10.17,10.17Z"/>
      <path class="cls-1" d="m41.45,102.47l-5.49-5.49c-6.18-6.18-9.59-14.41-9.59-23.15v-38.84h14.38v38.84c0,4.91,1.91,9.52,5.38,12.99l5.49,5.49-10.17,10.17Z"/>
      <path class="cls-1" d="m175.72,150.28l-29.64-29.64c-1.35-1.35-3.13-2.09-5.04-2.09h-30.27v-14.38h30.27c5.74,0,11.14,2.24,15.2,6.3l29.64,29.64-10.17,10.17Z"/>
      <path class="cls-1" d="m77.31,185.75l-27.33-27.33c-6.18-6.19-9.59-14.41-9.59-23.15s3.41-16.97,9.59-23.15l14.99-14.99,10.17,10.17-14.99,14.99c-3.47,3.47-5.38,8.08-5.38,12.99s1.91,9.52,5.38,12.99l27.33,27.33-10.16,10.17Z"/>
      <path class="cls-1" d="m171.7,100.08l-35.74-35.74c-3.47-3.47-8.08-5.38-12.99-5.38h-31.8v-14.38h31.8c8.74,0,16.97,3.41,23.15,9.59l35.74,35.74-10.17,10.17Z"/>
      <polygon class="cls-3" points="186.09 186.99 .4 186.99 .4 173.64 172.75 173.64 172.75 1.29 186.09 1.29 186.09 186.99"/>
      <polygon class="cls-1" points="14.38 173.53 0 173.53 0 .9 172.63 .9 172.63 15.27 14.38 15.27 14.38 173.53"/>
      <polygon class="cls-1" points="140.02 91.74 129.66 81.24 119.49 91.41 119.82 91.74 140.02 91.74"/>
    </g>
  </g>
</svg>