<svg width="299" height="30" viewBox="0 0 299 30" fill="none" xmlns="http://www.w3.org/2000/svg">
<g clip-path="url(#clip0_1_111)">
<path d="M54.0821 15.2683C49.0715 6.61231 39.7133 0.781166 28.9821 0.781166C12.98 0.781166 0 13.7533 0 29.7633H28.9821C39.7054 29.7633 49.0637 23.9321 54.0821 15.2683Z" fill="url(#paint0_linear_1_111)"/>
<path d="M28.9821 0.781166C39.7054 0.781166 49.0637 6.61231 54.0821 15.2762C56.5518 11.0153 57.9721 6.06786 57.9721 0.781166H28.99H28.9821Z" fill="#4D96FF"/>
<path d="M91.2151 2.75381V6.69911H84.1531V27.8538H80.0263V6.69911H72.9248V2.75381H91.2151Z" fill="white"/>
<path d="M93.8348 20.5392C94.1189 21.9043 94.7817 22.9458 95.8075 23.6796C96.8332 24.4056 98.0878 24.7764 99.5713 24.7764C101.631 24.7764 103.169 24.0347 104.195 22.5513L107.383 24.4135C105.615 27.0174 102.996 28.3193 99.5318 28.3193C96.6123 28.3193 94.2609 27.4277 92.4697 25.6444C90.6786 23.8611 89.7791 21.6123 89.7791 18.8822C89.7791 16.152 90.6628 13.9663 92.4303 12.1594C94.1978 10.3524 96.4703 9.45292 99.2478 9.45292C101.875 9.45292 104.037 10.3761 105.718 12.2146C107.407 14.0531 108.243 16.2941 108.243 18.9216C108.243 19.3319 108.196 19.8685 108.101 20.5392H93.8269H93.8348ZM93.7954 17.383H104.337C104.077 15.9232 103.469 14.8264 102.522 14.0847C101.575 13.343 100.471 12.9721 99.2083 12.9721C97.7722 12.9721 96.5807 13.3666 95.626 14.1557C94.6712 14.9448 94.0636 16.0179 93.7954 17.383Z" fill="white"/>
<path d="M120.016 28.3272C117.317 28.3272 115.06 27.4198 113.254 25.6049C111.447 23.7901 110.547 21.5492 110.547 18.898C110.547 16.2467 111.447 13.9821 113.254 12.1752C115.06 10.3682 117.309 9.4687 120.016 9.4687C121.76 9.4687 123.353 9.88691 124.782 10.7233C126.218 11.5597 127.291 12.6802 128.009 14.0926L124.671 16.0258C124.261 15.1657 123.645 14.4871 122.825 13.9979C121.996 13.5087 121.049 13.2641 119.976 13.2641C118.398 13.2641 117.08 13.8006 116.015 14.8816C114.95 15.9548 114.421 17.2962 114.421 18.898C114.421 20.4997 114.95 21.8411 116.015 22.9143C117.08 23.9874 118.398 24.5318 119.976 24.5318C121.026 24.5318 121.981 24.2793 122.825 23.7822C123.677 23.2772 124.316 22.6144 124.742 21.7701L128.08 23.6718C127.315 25.1078 126.218 26.2441 124.782 27.0805C123.346 27.9169 121.76 28.3351 120.016 28.3351V28.3272Z" fill="white"/>
<path d="M140.31 9.46081C142.37 9.46081 144.027 10.1157 145.297 11.4335C146.568 12.7512 147.199 14.5502 147.199 16.8464V27.8538H143.325V17.2409C143.325 15.8995 142.969 14.8738 142.251 14.1557C141.533 13.4377 140.555 13.0826 139.308 13.0826C137.943 13.0826 136.846 13.5087 136.01 14.353C135.174 15.2052 134.755 16.4992 134.755 18.243V27.8538H130.881V2.75381H134.755V12.2225C135.923 10.384 137.777 9.46081 140.31 9.46081Z" fill="white"/>
<path d="M166.31 6.69911H155.729V13.7296H165.947V17.6749H155.729V27.8617H151.602V2.75381H166.302V6.69911H166.31Z" fill="white"/>
<path d="M169.932 27.8538V1.68069H173.806V27.8617H169.932V27.8538Z" fill="white"/>
<path d="M186.754 28.3272C184.127 28.3272 181.886 27.4198 180.047 25.6049C178.209 23.7901 177.286 21.5492 177.286 18.898C177.286 16.2467 178.209 14.0058 180.047 12.191C181.886 10.3761 184.127 9.4687 186.754 9.4687C189.382 9.4687 191.647 10.3761 193.477 12.191C195.308 14.0058 196.223 16.2467 196.223 18.898C196.223 21.5492 195.308 23.7901 193.477 25.6049C191.647 27.4198 189.406 28.3272 186.754 28.3272ZM182.777 22.9458C183.851 24.0189 185.184 24.5634 186.754 24.5634C188.325 24.5634 189.658 24.0268 190.731 22.9458C191.804 21.8727 192.349 20.5155 192.349 18.8901C192.349 17.2646 191.812 15.9153 190.731 14.8343C189.658 13.7612 188.325 13.2167 186.754 13.2167C185.184 13.2167 183.851 13.7533 182.777 14.8343C181.704 15.9074 181.16 17.2646 181.16 18.8901C181.16 20.5155 181.696 21.8648 182.777 22.9458Z" fill="white"/>
<path d="M219.674 9.92635H223.761L218.127 27.8538H214.324L210.592 15.7654L206.828 27.8538H203.025L197.391 9.92635H201.478L204.958 22.2988L208.722 9.92635H212.415L216.147 22.2988L219.658 9.92635H219.674Z" fill="white"/>
<path d="M255.875 5.61709L253.61 7.88235L258.838 13.1103L261.103 10.8451L255.875 5.61709Z" fill="white"/>
<path d="M246.589 5.61491L241.361 10.8429L243.626 13.1082L248.854 7.88018L246.589 5.61491Z" fill="white"/>
<path d="M243.069 4.39506H259.237V7.44082H262.441V1.27827H262.133H259.237H243.069H240.166H239.866V7.44082H243.069V4.39506Z" fill="white"/>
<path d="M252.838 9.52393H249.634V14.0847H239.811V17.2015H243.496C242.391 23.1115 240.103 28.5402 240.071 28.6034L239.905 28.99L242.991 29.858L243.125 29.566C243.148 29.5108 245.579 24.1452 246.739 17.1936H249.642V30H252.846V17.1936H262.67V14.0768H252.846V9.51604L252.838 9.52393Z" fill="white"/>
<path d="M234.802 0.0111967L232.536 2.27647L236.944 6.68426L239.209 4.41899L234.802 0.0111967Z" fill="white"/>
<path d="M234.804 7.35194L232.539 9.61721L236.947 14.025L239.212 11.7597L234.804 7.35194Z" fill="white"/>
<path d="M259.534 18.4191L256.451 19.2876L259.439 29.8979L262.523 29.0294L259.534 18.4191Z" fill="white"/>
<path d="M235.487 16.0179C234.658 22.283 231.967 28.5402 231.944 28.6034L231.778 28.99L234.863 29.858L234.997 29.5739C235.021 29.5187 237.609 23.9006 238.603 16.7912L238.651 16.4677L235.558 15.5918L235.502 16.0179H235.487Z" fill="white"/>
<path d="M282.743 0.307732H279.54V2.95108H275.034V6.06786H279.54V8.01683H275.224V20.9337H279.54V22.9221H275.034V26.0389H279.54V30H282.743V26.0389H287.059V22.9221H282.743V20.9337H283.627C285.521 20.9337 287.059 19.3951 287.059 17.5092V8.02472H282.743V6.07575H287.059V2.95897H282.743V0.307732ZM283.848 17.5013C283.848 17.6276 283.745 17.7301 283.619 17.7301H278.427V16.0337H283.848V17.5013ZM283.848 11.2283V12.9248H278.427V11.2283H283.848Z" fill="white"/>
<path d="M295.037 1.19147H288.259V30.0079H291.462V20.2236H295.037V26.4098C295.037 26.6228 294.863 26.8043 294.642 26.8043H293.222V30.0079H294.619C296.615 30.0079 298.24 28.3824 298.24 26.3861V1.19147H295.037ZM295.037 17.0989H291.462V12.3014H295.037V17.0989ZM295.037 9.19253H291.462V4.39505H295.037V9.19253Z" fill="white"/>
<path d="M270.152 0.176983L267.887 2.44225L272.295 6.85005L274.56 4.58478L270.152 0.176983Z" fill="white"/>
<path d="M270.155 7.52562L267.889 9.79089L272.297 14.1987L274.562 11.9334L270.155 7.52562Z" fill="white"/>
<path d="M270.852 16.0179C270.016 22.283 267.333 28.5402 267.309 28.6034L267.144 28.99L270.229 29.858L270.363 29.5739C270.387 29.5187 272.975 23.9006 273.969 16.7912L274.016 16.4676L270.923 15.5918L270.868 16.0179H270.852Z" fill="white"/>
</g>
<defs>
<linearGradient id="paint0_linear_1_111" x1="54.0821" y1="15.2683" x2="0" y2="15.2683" gradientUnits="userSpaceOnUse">
<stop stop-color="#031D81"/>
<stop offset="1" stop-color="#2203FF"/>
</linearGradient>
<clipPath id="clip0_1_111">
<rect width="298.24" height="30" fill="white"/>
</clipPath>
</defs>
</svg>
