<?xml version="1.0" encoding="utf-8"?>
<!-- Generator: Adobe Illustrator 25.3.1, SVG Export Plug-In . SVG Version: 6.00 Build 0)  -->
<svg version="1.1" id="图层_1" xmlns="http://www.w3.org/2000/svg" xmlns:xlink="http://www.w3.org/1999/xlink" x="0px" y="0px"
	 viewBox="0 0 502.5 170" style="enable-background:new 0 0 502.5 170;" xml:space="preserve">
<style type="text/css">
	.st0{fill:url(#SVGID_1_);}
	.st1{fill:url(#SVGID_2_);}
	.st2{fill:url(#SVGID_3_);}
	.st3{fill:url(#SVGID_4_);}
	.st4{fill:url(#SVGID_5_);}
	.st5{fill:url(#SVGID_6_);}
</style>
<g>
	<g>
		<linearGradient id="SVGID_1_" gradientUnits="userSpaceOnUse" x1="54.5325" y1="9.363" x2="85.5325" y2="217.3629">
			<stop  offset="4.399238e-04" style="stop-color:#FFFFFF"/>
			<stop  offset="0.1493" style="stop-color:#F6F8FB"/>
			<stop  offset="0.6871" style="stop-color:#DAE3EF"/>
			<stop  offset="1" style="stop-color:#D0DBEA"/>
		</linearGradient>
		<path class="st0" d="M105,0L91,20c-2.2,3.2-5.8,5-9.7,5H5V0H105z"/>
		<linearGradient id="SVGID_2_" gradientUnits="userSpaceOnUse" x1="87.9841" y1="4.3774" x2="118.9841" y2="212.3774">
			<stop  offset="4.399238e-04" style="stop-color:#FFFFFF"/>
			<stop  offset="0.1493" style="stop-color:#F6F8FB"/>
			<stop  offset="0.6871" style="stop-color:#DAE3EF"/>
			<stop  offset="1" style="stop-color:#D0DBEA"/>
		</linearGradient>
		<polygon class="st1" points="200,0 80,170 0,170 120,0 		"/>
		<linearGradient id="SVGID_3_" gradientUnits="userSpaceOnUse" x1="121.4358" y1="-0.6082" x2="152.4358" y2="207.3918">
			<stop  offset="4.399238e-04" style="stop-color:#FFFFFF"/>
			<stop  offset="0.1493" style="stop-color:#F6F8FB"/>
			<stop  offset="0.6871" style="stop-color:#DAE3EF"/>
			<stop  offset="1" style="stop-color:#D0DBEA"/>
		</linearGradient>
		<path class="st2" d="M95,170l14.1-20c2.2-3.1,5.8-5,9.7-5H195v25H95z"/>
	</g>
	<g>
		<g>
			<linearGradient id="SVGID_4_" gradientUnits="userSpaceOnUse" x1="215.5536" y1="-14.6354" x2="246.5536" y2="193.3646">
				<stop  offset="4.399238e-04" style="stop-color:#FFFFFF"/>
				<stop  offset="0.1493" style="stop-color:#F6F8FB"/>
				<stop  offset="0.6871" style="stop-color:#DAE3EF"/>
				<stop  offset="1" style="stop-color:#D0DBEA"/>
			</linearGradient>
			<path class="st3" d="M226,169.3v-30.8h29.4v30.8H226z"/>
			<linearGradient id="SVGID_5_" gradientUnits="userSpaceOnUse" x1="332.1472" y1="-32.0123" x2="363.1472" y2="175.9877">
				<stop  offset="4.399238e-04" style="stop-color:#FFFFFF"/>
				<stop  offset="0.1493" style="stop-color:#F6F8FB"/>
				<stop  offset="0.6871" style="stop-color:#DAE3EF"/>
				<stop  offset="1" style="stop-color:#D0DBEA"/>
			</linearGradient>
			<path class="st4" d="M444,169.3h-30l-14.6-36.7h-75.3l-14.4,36.7h-29.4L348.1,0.5h26L444,169.3z M389.7,107.8l-28.2-71.2
				l-27.8,71.2H389.7z"/>
			<linearGradient id="SVGID_6_" gradientUnits="userSpaceOnUse" x1="468.2431" y1="-52.2958" x2="499.2431" y2="155.7042">
				<stop  offset="4.399238e-04" style="stop-color:#FFFFFF"/>
				<stop  offset="0.1493" style="stop-color:#F6F8FB"/>
				<stop  offset="0.6871" style="stop-color:#DAE3EF"/>
				<stop  offset="1" style="stop-color:#D0DBEA"/>
			</linearGradient>
			<path class="st5" d="M474.9,169.3V0.5h27.7v168.8H474.9z"/>
		</g>
	</g>
</g>
</svg>
